# This file uses centimeters as units for non-parametric coordinates.

mtllib Wall.mtl
g default
v -5.421875 7.432333 5.486404
v 5.421875 7.432333 5.486404
v -5.421875 0.401606 5.486404
v 5.421875 0.401606 5.486404
v -5.421875 0.357031 5.453770
v 5.421875 0.357031 5.453770
v -5.421875 7.476908 5.453770
v 5.421875 7.476908 5.453770
v 5.421875 3.916970 5.486404
v -5.421875 3.916970 5.486404
v -5.421875 0.196465 5.427429
v 5.421875 0.196465 5.427429
v -5.421875 7.637475 5.427429
v 5.421875 7.637475 5.427429
v -5.421875 0.046437 5.353622
v -5.421875 0.149289 5.379963
v 5.421875 0.149289 5.379963
v 5.421875 0.046437 5.353622
v -5.421875 7.684650 5.379963
v 5.421875 7.684650 5.379963
v -5.421875 7.787504 5.353622
v 5.421875 7.787504 5.353622
v -5.421875 0.046437 5.291683
v -5.421875 0.149289 5.318024
v 5.421875 0.149289 5.318024
v 5.421875 0.046437 5.291683
v -5.421875 7.476908 5.391830
v -5.421875 7.637475 5.365489
v 5.421875 7.637475 5.365489
v 5.421875 7.476908 5.391830
v -5.421875 3.916970 5.424465
v -5.421875 7.432333 5.424465
v 5.421875 7.432333 5.424465
v 5.421875 3.916970 5.424465
v -5.421875 0.401606 5.424465
v 5.421875 0.401606 5.424465
v 5.421875 0.357031 5.391830
v -5.421875 0.357031 5.391830
v -5.421875 0.196465 5.365489
v 5.421875 0.196465 5.365489
v -5.421875 7.684650 5.318024
v 5.421875 7.684650 5.318024
v -5.421875 7.787504 5.291683
v 5.421875 7.787504 5.291683
vt 1.000000 0.112403
vt 1.000000 0.122703
vt 0.000000 0.122703
vt 0.000000 0.112403
vt 1.000000 0.856494
vt 1.000000 0.872573
vt 0.000000 0.872573
vt 0.000000 0.856494
vt 1.000000 0.500000
vt 1.000000 0.852030
vt 0.000000 0.852030
vt 0.000000 0.500000
vt 1.000000 0.147970
vt 0.000000 0.147970
vt 0.000000 0.143506
vt 1.000000 0.143506
vt 0.000000 0.127427
vt 1.000000 0.127427
vt 0.000000 0.877297
vt 1.000000 0.877297
vt 1.000000 0.887597
vt 0.000000 0.887597
vt 1.000000 0.112403
vt 1.000000 0.122703
vt 0.000000 0.122703
vt 0.000000 0.112403
vt 1.000000 0.856494
vt 1.000000 0.872573
vt 0.000000 0.872573
vt 0.000000 0.856494
vt 1.000000 0.500000
vt 1.000000 0.852030
vt 0.000000 0.852030
vt 0.000000 0.500000
vt 0.000000 0.147970
vt 0.000000 0.143506
vt 1.000000 0.143506
vt 1.000000 0.147970
vt 1.000000 0.127427
vt 0.000000 0.127427
vt 1.000000 0.877297
vt 1.000000 0.887597
vt 0.000000 0.887597
vt 0.000000 0.877297
vn 0.000000 0.248095 -0.968736
vn 0.000000 0.248095 -0.968736
vn 0.000000 0.248095 -0.968736
vn 0.000000 0.248095 -0.968736
vn 0.000000 -0.161886 -0.986810
vn 0.000000 -0.161886 -0.986810
vn 0.000000 -0.161886 -0.986810
vn 0.000000 -0.161886 -0.986810
vn 0.000000 0.000000 -1.000000
vn 0.000000 0.000000 -1.000000
vn 0.000000 0.000000 -1.000000
vn 0.000000 0.000000 -1.000000
vn 0.000000 0.590730 -0.806870
vn 0.000000 0.590730 -0.806870
vn 0.000000 0.590730 -0.806870
vn 0.000000 0.590730 -0.806870
vn 0.000000 -0.590730 -0.806870
vn 0.000000 -0.590730 -0.806870
vn 0.000000 -0.590730 -0.806870
vn 0.000000 -0.590730 -0.806870
vn 0.000000 0.000000 -1.000000
vn 0.000000 0.000000 -1.000000
vn 0.000000 0.161886 -0.986809
vn 0.000000 0.161886 -0.986809
vn 0.000000 0.161886 -0.986809
vn 0.000000 0.161886 -0.986809
vn 0.000000 -0.248094 -0.968736
vn 0.000000 -0.248094 -0.968736
vn 0.000000 -0.248094 -0.968736
vn 0.000000 -0.248094 -0.968736
vn 0.000000 0.709271 -0.704936
vn 0.000000 0.709271 -0.704936
vn 0.000000 0.709271 -0.704936
vn 0.000000 0.709271 -0.704936
vn 0.000000 -0.709271 -0.704936
vn 0.000000 -0.709271 -0.704936
vn 0.000000 -0.709271 -0.704936
vn 0.000000 -0.709271 -0.704936
vn -1.000000 0.000000 -0.000000
vn -1.000000 0.000000 -0.000000
vn -1.000000 0.000000 -0.000000
vn -1.000000 0.000000 -0.000000
vn 1.000000 0.000000 0.000000
vn 1.000000 0.000000 0.000000
vn 1.000000 0.000000 0.000000
vn 1.000000 0.000000 0.000000
vn -1.000000 0.000000 -0.000000
vn -1.000000 0.000000 -0.000000
vn -1.000000 0.000000 -0.000000
vn -1.000000 0.000000 -0.000000
vn 1.000000 0.000000 0.000000
vn 1.000000 0.000000 0.000000
vn 1.000000 0.000000 0.000000
vn 1.000000 0.000000 0.000000
vn -1.000000 0.000000 -0.000000
vn -1.000000 0.000000 -0.000000
vn -1.000000 0.000000 -0.000000
vn -1.000000 0.000000 -0.000000
vn 1.000000 0.000000 0.000000
vn 1.000000 0.000000 0.000000
vn 1.000000 0.000000 0.000000
vn 1.000000 0.000000 0.000000
vn 1.000000 0.000000 0.000000
vn 1.000000 0.000000 0.000000
vn 1.000000 0.000000 0.000000
vn 1.000000 0.000000 0.000000
vn -1.000000 0.000000 -0.000000
vn -1.000000 0.000000 -0.000000
vn -1.000000 0.000000 -0.000000
vn -1.000000 0.000000 -0.000000
vn -1.000000 0.000000 -0.000000
vn -1.000000 0.000000 -0.000000
vn -1.000000 0.000000 -0.000000
vn -1.000000 0.000000 -0.000000
vn 1.000000 0.000000 0.000000
vn 1.000000 0.000000 0.000000
vn 1.000000 0.000000 0.000000
vn 1.000000 0.000000 0.000000
vn -1.000000 0.000000 -0.000000
vn -1.000000 0.000000 -0.000000
vn -1.000000 0.000000 -0.000000
vn -1.000000 0.000000 -0.000000
vn 1.000000 0.000000 0.000000
vn 1.000000 0.000000 0.000000
vn 1.000000 0.000000 0.000000
vn 1.000000 0.000000 0.000000
vn -1.000000 0.000000 -0.000000
vn -1.000000 0.000000 -0.000000
vn -1.000000 0.000000 -0.000000
vn -1.000000 0.000000 -0.000000
vn 1.000000 0.000000 0.000000
vn 1.000000 0.000000 0.000000
vn 1.000000 0.000000 0.000000
vn 1.000000 0.000000 0.000000
vn -1.000000 0.000000 -0.000000
vn -1.000000 0.000000 -0.000000
vn -1.000000 0.000000 -0.000000
vn -1.000000 0.000000 -0.000000
vn 1.000000 0.000000 0.000000
vn 1.000000 0.000000 0.000000
vn 1.000000 0.000000 0.000000
vn 1.000000 0.000000 0.000000
vn 1.000000 0.000000 0.000000
vn 1.000000 0.000000 0.000000
vn 1.000000 0.000000 0.000000
vn 1.000000 0.000000 0.000000
vn -1.000000 0.000000 -0.000000
vn -1.000000 0.000000 -0.000000
vn -1.000000 0.000000 -0.000000
vn -1.000000 0.000000 -0.000000
vn -1.000000 0.000000 -0.000000
vn -1.000000 0.000000 -0.000000
vn -1.000000 0.000000 -0.000000
vn -1.000000 0.000000 -0.000000
vn 1.000000 0.000000 0.000000
vn 1.000000 0.000000 0.000000
vn 1.000000 0.000000 0.000000
vn 1.000000 0.000000 0.000000
s off
g polySurface69
usemtl lambert2SG
f 23/1/1 24/2/2 25/3/3 26/4/4
f 27/5/5 28/6/6 29/7/7 30/8/8
s 1
f 31/9/9 32/10/10 33/11/11 34/12/12
s off
f 35/13/13 36/14/14 37/15/15 38/16/16
f 33/11/17 32/10/18 27/5/19 30/8/20
s 1
f 35/13/21 31/9/9 34/12/12 36/14/22
s off
f 40/17/23 39/18/24 38/16/25 37/15/26
f 42/19/27 41/20/28 43/21/29 44/22/30
f 39/18/31 40/17/32 25/3/33 24/2/34
f 29/7/35 28/6/36 41/20/37 42/19/38
f 15/23/39 16/24/40 24/2/41 23/1/42
f 17/25/43 18/26/44 26/4/45 25/3/46
f 7/27/47 13/28/48 28/6/49 27/5/50
f 14/29/51 8/30/52 30/8/53 29/7/54
f 10/31/55 1/32/56 32/10/57 31/9/58
f 2/33/59 9/34/60 34/12/61 33/11/62
f 4/35/63 6/36/64 37/15/65 36/14/66
f 5/37/67 3/38/68 35/13/69 38/16/70
f 1/32/71 7/27/72 27/5/73 32/10/74
f 8/30/75 2/33/76 33/11/77 30/8/78
f 3/38/79 10/31/80 31/9/81 35/13/82
f 9/34/83 4/35/84 36/14/85 34/12/86
f 11/39/87 5/37/88 38/16/89 39/18/90
f 6/36/91 12/40/92 40/17/93 37/15/94
f 19/41/95 21/42/96 43/21/97 41/20/98
f 22/43/99 20/44/100 42/19/101 44/22/102
f 12/40/103 17/25/104 25/3/105 40/17/106
f 16/24/107 11/39/108 39/18/109 24/2/110
f 13/28/111 19/41/112 41/20/113 28/6/114
f 20/44/115 14/29/116 29/7/117 42/19/118
