# This file uses centimeters as units for non-parametric coordinates.

mtllib Book_01.mtl
g default
v -0.924816 2.444302 -4.426115
v -0.763444 2.444302 -4.426115
v -0.924816 3.133051 -4.426115
v -0.763444 3.133051 -4.426115
v -0.924816 3.133051 -4.891623
v -0.763444 3.133051 -4.891623
v -0.924816 2.444302 -4.891623
v -0.763444 2.444302 -4.891623
v -0.918101 3.133051 -4.440402
v -0.770159 3.133051 -4.440402
v -0.770159 3.133051 -4.891623
v -0.918101 3.133051 -4.891623
v -0.770159 2.444302 -4.891623
v -0.918101 2.444302 -4.891623
v -0.770158 2.444302 -4.440402
v -0.918101 2.444302 -4.440402
v -0.918101 3.123622 -4.440402
v -0.770159 3.123622 -4.440402
v -0.770159 3.123622 -4.883220
v -0.918101 3.123622 -4.883220
v -0.770159 2.453731 -4.883220
v -0.918101 2.453731 -4.883220
v -0.770158 2.453731 -4.440402
v -0.918101 2.453731 -4.440402
v -0.819473 3.123622 -4.862795
v -0.819473 2.453731 -4.862795
v -0.819473 2.453731 -4.419977
v -0.819473 2.444302 -4.419977
v -0.817235 2.444302 -4.405690
v -0.817235 3.133051 -4.405690
v -0.819473 3.133051 -4.419977
v -0.819473 3.123622 -4.419977
v -0.868787 3.123622 -4.862795
v -0.868787 2.453731 -4.862795
v -0.868787 2.453731 -4.419977
v -0.868787 2.444302 -4.419977
v -0.871025 2.444302 -4.405690
v -0.871025 3.133051 -4.405690
v -0.868787 3.133051 -4.419977
v -0.868787 3.123622 -4.419977
vt 0.615347 0.486478
vt 0.902600 0.486479
vt 0.903337 0.912682
vt 0.615347 0.912682
vt 0.226622 0.486479
vt 0.514961 0.486478
vt 0.514961 0.912682
vt 0.227359 0.912682
vt 0.615347 0.926021
vt 0.915195 0.912682
vt 0.920574 0.912682
vt 0.615347 0.932247
vt 0.902600 0.474752
vt 0.902600 0.467643
vt 0.615347 0.477346
vt 0.615347 0.471121
vt 0.227359 0.923604
vt 0.514961 0.926126
vt 0.514961 0.931960
vt 0.227359 0.930025
vt 0.218316 0.486479
vt 0.212458 0.486479
vt 0.514961 0.477241
vt 0.514961 0.471406
vt 0.030345 0.017678
vt 0.060861 0.017678
vt 0.060861 0.291696
vt 0.030345 0.291696
vt 0.091377 0.017678
vt 0.091377 0.291697
vt 0.121893 0.017678
vt 0.121893 0.291697
vt 0.030341 0.706230
vt 0.060857 0.706230
vt 0.060852 0.980249
vt 0.030336 0.980248
vt 0.091373 0.706230
vt 0.091368 0.980249
vt 0.121889 0.706231
vt 0.121884 0.980250
vt 0.548247 0.912682
vt 0.548247 0.926126
vt 0.582061 0.912682
vt 0.582061 0.926126
vt 0.582061 0.486478
vt 0.582061 0.477241
vt 0.548247 0.486478
vt 0.548247 0.477241
vt 0.548247 0.931961
vt 0.582061 0.931961
vt 0.548247 0.471406
vt 0.582061 0.471406
vt 0.226622 0.477666
vt 0.226622 0.471254
vt 0.914571 0.486479
vt 0.920075 0.486479
vt 0.218961 0.912682
vt 0.213001 0.912682
vt 0.903337 0.926505
vt 0.903337 0.933605
vn -0.354983 -0.000000 0.934873
vn -0.186524 -0.000000 0.982450
vn -0.186524 -0.000000 0.982450
vn -0.354983 -0.000000 0.934873
vn 0.000000 1.000000 0.000000
vn 0.000000 1.000000 0.000000
vn 0.000000 1.000000 0.000000
vn 0.000000 1.000000 0.000000
vn 0.382657 0.000000 -0.923890
vn 0.202788 0.000000 -0.979223
vn 0.202788 0.000000 -0.979223
vn 0.382657 0.000000 -0.923890
vn 0.000000 -1.000000 0.000000
vn 0.000000 -1.000000 0.000000
vn 0.000000 -1.000000 0.000000
vn 0.000000 -1.000000 0.000000
vn 1.000000 0.000000 -0.000000
vn 1.000000 0.000000 -0.000000
vn 1.000000 0.000000 -0.000000
vn 1.000000 0.000000 -0.000000
vn -1.000000 -0.000000 0.000000
vn -1.000000 -0.000000 0.000000
vn -1.000000 -0.000000 0.000000
vn -1.000000 -0.000000 0.000000
vn 0.000000 1.000000 -0.000000
vn 0.000000 1.000000 -0.000000
vn 0.000000 1.000000 -0.000000
vn 0.000000 1.000000 -0.000000
vn 0.000000 1.000000 0.000000
vn 0.000000 1.000000 0.000000
vn 0.000000 1.000000 0.000000
vn 0.000000 1.000000 0.000000
vn 0.000000 1.000000 0.000000
vn 0.000000 1.000000 0.000000
vn 0.000000 1.000000 0.000000
vn 0.000000 1.000000 0.000000
vn 0.000000 0.000000 -1.000000
vn 0.000000 0.000000 -1.000000
vn 0.000000 0.000000 -1.000000
vn 0.000000 0.000000 -1.000000
vn 0.000000 0.000000 -1.000000
vn 0.000000 0.000000 -1.000000
vn 0.000000 0.000000 -1.000000
vn 0.000000 0.000000 -1.000000
vn 0.000000 -1.000000 0.000000
vn 0.000000 -1.000000 0.000000
vn 0.000000 -1.000000 0.000000
vn 0.000000 -1.000000 0.000000
vn 0.000000 -1.000000 0.000000
vn 0.000000 -1.000000 0.000001
vn 0.000000 -1.000000 0.000001
vn 0.000000 -1.000000 0.000000
vn 0.000000 -1.000000 0.000000
vn 0.000000 -1.000000 0.000000
vn 0.000000 -1.000000 0.000000
vn 0.000000 -1.000000 0.000000
vn 0.382658 0.000000 -0.923890
vn 0.202788 0.000000 -0.979223
vn 0.202788 0.000000 -0.979223
vn 0.382658 0.000000 -0.923890
vn -1.000000 0.000001 0.000000
vn -1.000000 0.000001 0.000000
vn -1.000000 0.000001 0.000000
vn -1.000000 0.000001 0.000000
vn 1.000000 -0.000000 0.000000
vn 1.000000 -0.000000 0.000000
vn 1.000000 -0.000000 0.000000
vn 1.000000 -0.000000 0.000000
vn -1.000000 0.000000 0.000000
vn -1.000000 0.000000 0.000000
vn -1.000000 0.000000 0.000000
vn -1.000000 0.000000 0.000000
vn 1.000000 0.000000 0.000000
vn 1.000000 0.000000 0.000000
vn 1.000000 0.000000 0.000000
vn 1.000000 0.000000 0.000000
vn -1.000000 0.000000 0.000001
vn -1.000000 0.000000 0.000001
vn -1.000000 0.000000 0.000001
vn -1.000000 0.000000 0.000001
vn 0.202788 0.000000 -0.979223
vn 0.382658 0.000000 -0.923890
vn 0.382658 0.000000 -0.923890
vn 0.202788 0.000000 -0.979223
vn 1.000000 0.000000 0.000000
vn 1.000000 0.000000 0.000000
vn 1.000000 0.000000 0.000000
vn 1.000000 0.000000 0.000000
vn -0.202788 0.000000 -0.979223
vn -0.382657 0.000000 -0.923890
vn -0.382657 0.000000 -0.923890
vn -0.202788 0.000000 -0.979223
vn 0.000000 -1.000000 0.000000
vn 0.000000 -1.000000 0.000000
vn 0.000000 -1.000000 0.000000
vn 0.000000 -1.000000 0.000000
vn -0.382658 0.000000 -0.923890
vn -0.202788 0.000000 -0.979223
vn -0.202788 0.000000 -0.979223
vn -0.382658 0.000000 -0.923890
vn 0.000000 -1.000000 0.000002
vn 0.000000 -1.000000 0.000001
vn 0.000000 -1.000000 0.000001
vn 0.000000 -1.000000 0.000002
vn 0.186524 0.000000 0.982450
vn 0.186524 0.000000 0.982450
vn 0.354983 0.000000 0.934873
vn 0.354983 0.000000 0.934873
vn 0.000000 1.000000 0.000001
vn 0.000000 1.000000 0.000001
vn 0.000000 1.000000 0.000002
vn 0.000000 1.000000 0.000002
vn -0.202788 0.000000 -0.979223
vn -0.202788 0.000000 -0.979223
vn -0.382658 0.000000 -0.923890
vn -0.382658 0.000000 -0.923890
vn 0.000000 1.000000 0.000000
vn 0.000000 1.000000 0.000000
vn 0.000000 1.000000 0.000000
vn 0.000000 1.000000 0.000000
s 1
g pCube8
usemtl initialShadingGroup
f 1/6/1 37/47/2 38/41/3 3/7/4
s 2
f 17/25/5 40/26/6 33/27/7 20/28/8
s 3
f 20/28/9 33/27/10 34/34/11 22/33/12
s 4
f 22/33/13 34/34/14 35/35/15 24/36/16
s off
f 2/1/17 8/2/18 6/3/19 4/4/20
f 7/5/21 1/6/22 3/7/23 5/8/24
s 5
f 3/7/25 38/41/26 39/42/27 9/18/28
s off
f 4/4/29 6/3/30 11/59/31 10/9/32
f 5/8/33 3/7/34 9/18/35 12/17/36
f 6/3/37 8/2/38 13/55/39 11/10/40
f 7/5/41 5/8/42 12/57/43 14/21/44
f 8/2/45 2/1/46 15/15/47 13/13/48
s 6
f 37/47/49 1/6/50 16/23/51 36/48/52
s off
f 1/6/53 7/5/54 14/53/55 16/23/56
s 7
f 9/18/57 39/42/58 40/49/59 17/19/60
s off
f 10/9/61 11/59/62 19/60/63 18/12/64
f 12/17/65 9/18/66 17/19/67 20/20/68
f 11/10/69 13/55/70 21/56/71 19/11/72
f 14/21/73 12/57/74 20/58/75 22/22/76
f 13/13/77 15/15/78 23/16/79 21/14/80
s 8
f 36/48/81 16/23/82 24/24/83 35/51/84
s off
f 16/23/85 14/53/86 22/54/87 24/24/88
s 3
f 25/30/89 19/32/90 21/39/91 26/37/92
s 4
f 27/38/93 26/37/94 21/39/95 23/40/96
s 8
f 15/15/97 28/46/98 27/52/99 23/16/100
s 6
f 2/1/101 29/45/102 28/46/103 15/15/104
s 1
f 30/43/105 29/45/106 2/1/107 4/4/108
s 5
f 31/44/109 30/43/110 4/4/111 10/9/112
s 7
f 32/50/113 31/44/114 10/9/115 18/12/116
s 2
f 25/30/117 32/29/118 18/31/119 19/32/120
s 3
f 33/27/10 25/30/89 26/37/92 34/34/11
s 4
f 35/35/15 34/34/14 26/37/94 27/38/93
s 8
f 28/46/98 36/48/81 35/51/84 27/52/99
s 6
f 29/45/102 37/47/49 36/48/52 28/46/103
s 1
f 38/41/3 37/47/2 29/45/106 30/43/105
s 5
f 39/42/27 38/41/26 30/43/110 31/44/109
s 7
f 40/49/59 39/42/58 31/44/114 32/50/113
s 2
f 33/27/7 40/26/6 32/29/118 25/30/117
